<svg width="226" height="226" viewBox="0 0 226 226" fill="none" xmlns="http://www.w3.org/2000/svg">
<mask id="mask0_638_2474" style="mask-type:luminance" maskUnits="userSpaceOnUse" x="0" y="0" width="226" height="226">
<path d="M0 1.52588e-05H226V226H0V1.52588e-05Z" fill="white"/>
</mask>
<g mask="url(#mask0_638_2474)">
<path d="M28.2226 114.899C27.9948 114.899 27.8808 114.804 27.8808 114.652C27.8808 114.576 27.8808 114.481 27.9378 114.386L28.4885 113.171C28.6404 112.829 28.8683 112.658 29.21 112.658H31.6217C33.4637 112.658 34.8688 111.671 34.8688 109.981C34.8688 109.164 34.2611 108.746 33.3687 108.746H29.3051L24.7665 118.963C24.6147 119.304 24.3679 119.475 24.026 119.475H17.5127C17.2849 119.475 17.1709 119.399 17.1709 119.247C17.1709 119.152 17.19 119.076 17.228 118.963L22.5638 107.018C22.7158 106.695 22.9436 106.525 23.2854 106.525H39.5022C41.3632 106.525 42.5214 107.531 42.5214 109.24C42.5214 112.658 39.0085 114.899 35.3056 114.899H28.2226Z" fill="#EFEEDB"/>
<path d="M55.6242 119.475C55.1304 119.475 54.7697 119.323 54.5799 118.963L51.4086 112.943C51.3327 112.829 51.2757 112.734 51.2757 112.582C51.2757 112.506 51.3136 112.392 51.3897 112.24L51.5985 111.804C51.7504 111.481 51.9783 111.31 52.3201 111.31H54.9026C56.5547 111.31 57.4092 110.512 57.4092 109.601C57.4092 109.069 56.9725 108.746 56.042 108.746H51.8074L47.25 118.963C47.0981 119.304 46.8703 119.475 46.5284 119.475H40.0151C39.7873 119.475 39.6543 119.399 39.6543 119.247C39.6543 119.152 39.6733 119.077 39.7302 118.963L45.0662 107.018C45.2182 106.696 45.446 106.525 45.7878 106.525H62.3844C64.1503 106.525 65.2328 107.455 65.2328 108.822C65.2328 111.31 62.6692 113.114 59.574 113.494L62.4413 118.868C62.4603 118.906 62.4794 118.982 62.4794 119.038C62.4794 119.247 62.2705 119.475 61.9666 119.475H55.6242Z" fill="#EFEEDB"/>
<path d="M79.8926 111.709C80.3103 110.816 80.5192 110.171 80.5192 109.715C80.5192 108.993 79.9875 108.746 78.9811 108.746H76.3986C74.9174 108.746 74.006 109.411 72.9995 111.709L72.088 113.779C71.5943 114.88 71.3665 115.659 71.3665 116.209C71.3665 116.95 71.8033 117.235 72.6197 117.235H75.2213C76.7783 117.235 77.8417 116.361 78.9811 113.779L79.8926 111.709ZM68.4612 119.475C65.8216 119.475 64.3975 117.709 64.3975 115.374C64.3975 110.93 69.1827 106.525 74.2339 106.525H83.5385C86.216 106.525 87.6402 108.234 87.6402 110.569C87.6402 115.032 82.722 119.475 77.7658 119.475H68.4612Z" fill="#EFEEDB"/>
<path d="M84.8487 119.475C84.6209 119.475 84.5068 119.399 84.5068 119.247C84.5068 119.152 84.5258 119.077 84.5639 118.963L85.1145 117.747C85.2664 117.405 85.5133 117.235 85.855 117.235H91.7608C93.4128 117.235 94.3433 116.418 95.2357 114.443L98.5399 107.018C98.6917 106.696 98.9386 106.525 99.2615 106.525H106.534C106.781 106.525 106.895 106.601 106.895 106.772C106.895 106.848 106.876 106.923 106.838 107.018L103.667 114.12C102.262 117.235 99.4894 119.475 95.7104 119.475H84.8487Z" fill="#EFEEDB"/>
<path d="M115.744 113.532C115.516 113.532 115.402 113.456 115.402 113.304C115.402 113.228 115.421 113.133 115.478 113.038L116.01 111.804C116.162 111.481 116.409 111.31 116.75 111.31H125.808C126.074 111.31 126.207 111.367 126.207 111.5C126.207 111.538 126.188 111.595 126.169 111.652L125.466 113.19C125.371 113.418 125.144 113.532 124.821 113.532H115.744ZM109.041 119.475C106.458 119.475 104.996 117.766 104.996 115.374C104.996 110.949 109.8 106.525 114.813 106.525H128.087C128.315 106.525 128.429 106.601 128.429 106.772C128.429 106.848 128.41 106.923 128.372 107.018L127.821 108.234C127.669 108.575 127.422 108.746 127.08 108.746H118.251C116.617 108.746 115.725 109.373 114.7 111.709L113.788 113.778C113.313 114.842 113.066 115.601 113.066 116.152C113.066 116.931 113.56 117.235 114.472 117.235H123.378C123.605 117.235 123.719 117.329 123.719 117.481C123.719 117.538 123.7 117.652 123.643 117.747L123.112 118.963C122.96 119.304 122.713 119.475 122.371 119.475H109.041Z" fill="#EFEEDB"/>
<path d="M130.517 119.475C127.935 119.475 126.473 117.766 126.473 115.374C126.473 110.949 131.277 106.525 136.29 106.525H149.222C149.45 106.525 149.564 106.601 149.564 106.772C149.564 106.848 149.564 106.923 149.506 107.018L148.956 108.234C148.804 108.576 148.557 108.746 148.215 108.746H139.727C138.094 108.746 137.202 109.373 136.176 111.709L135.265 113.779C134.79 114.842 134.543 115.601 134.543 116.152C134.543 116.931 135.037 117.235 135.948 117.235H144.512C144.759 117.235 144.854 117.33 144.854 117.482C144.854 117.538 144.835 117.652 144.778 117.747L144.246 118.963C144.095 119.304 143.848 119.475 143.525 119.475H130.517Z" fill="#EFEEDB"/>
<path d="M151.007 119.475C150.836 119.475 150.722 119.418 150.722 119.342C150.722 119.304 150.741 119.266 150.76 119.229L155.412 108.746H149.867C149.677 108.746 149.602 108.708 149.602 108.614V108.538L150.38 106.772C150.475 106.601 150.627 106.525 150.855 106.525H169.502C169.673 106.525 169.768 106.563 169.768 106.658C169.768 106.696 169.749 106.734 169.749 106.772L168.971 108.538C168.895 108.689 168.743 108.746 168.515 108.746H162.932L158.28 119.229C158.204 119.399 158.052 119.475 157.824 119.475H151.007Z" fill="#EFEEDB"/>
<path d="M165.761 119.475C165.533 119.475 165.4 119.399 165.4 119.247C165.4 119.152 165.419 119.077 165.476 118.963L166.027 117.747C166.179 117.405 166.426 117.235 166.768 117.235H176.813C178.389 117.235 179.395 115.772 179.395 114.804C179.395 114.272 179.111 113.76 178.351 113.76H168.344C168.097 113.76 168.002 113.665 168.002 113.513C168.002 113.456 168.021 113.361 168.059 113.247L170.831 107.018C170.983 106.696 171.23 106.525 171.572 106.525H188.244C188.491 106.525 188.605 106.601 188.605 106.772C188.605 106.848 188.586 106.923 188.529 107.018L187.997 108.234C187.845 108.576 187.58 108.746 187.257 108.746H176.414L175.066 111.766H183.079C185.054 111.766 185.852 112.943 185.852 114.253C185.852 116.494 183.326 119.475 179.661 119.475H165.761Z" fill="#EFEEDB"/>
<path d="M201.423 111.709C201.841 110.816 202.031 110.171 202.031 109.715C202.031 108.993 201.518 108.746 200.512 108.746H199.107C197.626 108.746 196.733 109.411 195.707 111.709L194.796 113.779C194.302 114.88 194.074 115.659 194.074 116.209C194.074 116.95 194.511 117.235 195.347 117.235H196.752C198.29 117.235 199.372 116.361 200.512 113.779L201.423 111.709ZM191.511 119.475C188.871 119.475 187.447 117.709 187.447 115.374C187.447 110.93 192.233 106.525 197.284 106.525H204.727C207.405 106.525 208.829 108.234 208.829 110.569C208.829 115.032 203.911 119.475 198.955 119.475H191.511Z" fill="#EFEEDB"/>
</g>
</svg>
