<svg fill="none" xmlns="http://www.w3.org/2000/svg" viewBox="0 0 72 72">
    <mask id="mask0_640_2552" style="mask-type:luminance" maskUnits="userSpaceOnUse" x="0" y="0"
        width="72" height="72">
        <path d="M0 7.62939e-06H72V72H0V7.62939e-06Z" fill="white"></path>
    </mask>
    <g mask="url(#mask0_640_2552)">
        <path
            d="M12.9575 37.7411C12.7485 37.7411 12.644 37.6541 12.644 37.5148C12.644 37.4451 12.644 37.3581 12.6962 37.271L13.2012 36.1566C13.3405 35.8432 13.5494 35.6864 13.8629 35.6864H16.0743C17.7633 35.6864 19.0518 34.781 19.0518 33.2312C19.0518 32.4825 18.4947 32.0994 17.6763 32.0994H13.9499L9.78827 41.4675C9.64899 41.7809 9.42265 41.9376 9.10924 41.9376H3.13666C2.92779 41.9376 2.82324 41.8679 2.82324 41.7286C2.82324 41.6416 2.84067 41.5719 2.87552 41.4675L7.76842 30.5149C7.9077 30.2188 8.11668 30.0621 8.43013 30.0621H23.3006C25.007 30.0621 26.0691 30.9851 26.0691 32.5522C26.0691 35.6864 22.8477 37.7411 19.4524 37.7411H12.9575Z"
            fill="black"></path>
        <path
            d="M23.7703 41.9377C23.5614 41.9377 23.4395 41.868 23.4395 41.7288C23.4395 41.6418 23.4569 41.5721 23.5091 41.4676L24.0141 40.3532C24.1534 40.0398 24.3797 39.883 24.6932 39.883H33.9045C35.3498 39.883 36.2726 38.5422 36.2726 37.6542C36.2726 37.1666 36.0114 36.6965 35.3149 36.6965H26.1384C25.9121 36.6965 25.825 36.6094 25.825 36.4701C25.825 36.4179 25.8424 36.3308 25.8773 36.2263L28.4195 30.515C28.5588 30.219 28.7852 30.0622 29.0986 30.0622H44.3869C44.6132 30.0622 44.7178 30.1319 44.7178 30.2886C44.7178 30.3583 44.7003 30.428 44.6481 30.515L44.1605 31.6294C44.0212 31.9428 43.7775 32.0996 43.4814 32.0996H33.5388L32.3025 34.8682H39.6507C41.4616 34.8682 42.1929 35.9477 42.1929 37.1492C42.1929 39.2039 39.877 41.9377 36.5163 41.9377H23.7703Z"
            fill="black"></path>
        <path
            d="M56.471 34.8159C56.8541 33.9975 57.0282 33.4055 57.0282 32.9876C57.0282 32.3259 56.558 32.0996 55.6352 32.0996H54.3467C52.9885 32.0996 52.1701 32.709 51.2298 34.8159L50.394 36.7139C49.9413 37.7238 49.7323 38.4378 49.7323 38.9428C49.7323 39.6218 50.1328 39.8831 50.899 39.8831H52.1875C53.5979 39.8831 54.5905 39.0821 55.6352 36.7139L56.471 34.8159ZM47.3816 41.9377C44.9612 41.9377 43.6553 40.3184 43.6553 38.1766C43.6553 34.102 48.0433 30.0622 52.6751 30.0622H59.5008C61.9561 30.0622 63.2619 31.6294 63.2619 33.7712C63.2619 37.8631 58.7521 41.9377 54.2073 41.9377H47.3816Z"
            fill="black"></path>
        <path
            d="M66.9142 32.0985C67.0586 32.0985 67.177 32.0784 67.2693 32.0383C67.3616 31.9982 67.4078 31.9019 67.4078 31.7494C67.4078 31.6812 67.3917 31.627 67.3597 31.5869C67.3274 31.5468 67.2864 31.5157 67.2362 31.4936C67.1861 31.4715 67.1299 31.4565 67.0677 31.4484C67.0054 31.4405 66.9463 31.4364 66.8902 31.4364H66.4688V32.0985H66.9142ZM66.9202 31.0452C67.2372 31.0452 67.4809 31.1014 67.6516 31.2136C67.822 31.326 67.9074 31.5187 67.9074 31.7915C67.9074 31.908 67.8903 32.0073 67.8561 32.0894C67.822 32.1717 67.7749 32.239 67.7148 32.2911C67.6545 32.3432 67.5843 32.3835 67.5041 32.4115C67.4238 32.4396 67.3375 32.4577 67.2453 32.4656L67.9195 33.5671H67.3958L66.7818 32.4897H66.4688V33.5671H65.9692V31.0452H66.9202ZM65.3011 33.0194C65.3893 33.2361 65.5097 33.4237 65.6623 33.5821C65.8147 33.7408 65.9942 33.8642 66.201 33.9524C66.4075 34.0406 66.6292 34.0848 66.866 34.0848C67.0987 34.0848 67.3184 34.0406 67.5252 33.9524C67.7318 33.8642 67.9113 33.7408 68.0639 33.5821C68.2163 33.4237 68.3377 33.2361 68.428 33.0194C68.5183 32.8027 68.5634 32.566 68.5634 32.3092C68.5634 32.0524 68.5183 31.8166 68.428 31.6019C68.3377 31.3873 68.2163 31.2016 68.0639 31.0452C67.9113 30.8887 67.7318 30.7663 67.5252 30.678C67.3184 30.5897 67.0987 30.5455 66.866 30.5455C66.6292 30.5455 66.4075 30.5897 66.201 30.678C65.9942 30.7663 65.8147 30.8887 65.6623 31.0452C65.5097 31.2016 65.3893 31.3873 65.3011 31.6019C65.2128 31.8166 65.1686 32.0524 65.1686 32.3092C65.1686 32.566 65.2128 32.8027 65.3011 33.0194ZM64.7444 31.3822C64.8707 31.1053 65.0401 30.8697 65.2529 30.675C65.4656 30.4804 65.7113 30.3299 65.9903 30.2235C66.2691 30.1173 66.5611 30.064 66.866 30.064C67.171 30.064 67.4628 30.1173 67.7418 30.2235C68.0207 30.3299 68.2665 30.4804 68.4792 30.675C68.6918 30.8697 68.8614 31.1053 68.9878 31.3822C69.1142 31.6591 69.1773 31.9681 69.1773 32.3092C69.1773 32.6542 69.1142 32.9653 68.9878 33.2421C68.8614 33.519 68.6918 33.7558 68.4792 33.9524C68.2665 34.1491 68.0207 34.2995 67.7418 34.4038C67.4628 34.508 67.171 34.5603 66.866 34.5603C66.5611 34.5603 66.2691 34.508 65.9903 34.4038C65.7113 34.2995 65.4656 34.1491 65.2529 33.9524C65.0401 33.7558 64.8707 33.519 64.7444 33.2421C64.6179 32.9653 64.5547 32.6542 64.5547 32.3092C64.5547 31.9681 64.6179 31.6591 64.7444 31.3822Z"
            fill="black"></path>
    </g>
</svg>